<svg width="88" height="56" viewBox="0 0 88 56" fill="none" xmlns="http://www.w3.org/2000/svg">
<rect width="88" height="56" rx="2" fill="#E8E8E8"/>
<path fill-rule="evenodd" clip-rule="evenodd" d="M52.6829 26.9239C52.5699 27.5519 52.0129 28.0129 51.3529 28.0009H49.6829V19.0009H51.3709C52.0129 18.9519 52.5689 19.4479 52.6829 20.0769V26.9239ZM47.6829 28.7879L44.0749 36.9059C43.2679 36.6479 42.6829 35.8909 42.6829 35.0009V31.0009C42.6829 30.4479 42.2349 30.0009 41.6829 30.0009H36.0139C35.9679 29.9979 35.9069 29.9989 35.8499 29.9899C35.3049 29.9069 34.9289 29.3959 35.0109 28.8519L36.3919 19.8509C36.4659 19.3609 36.9179 19.0219 37.4029 19.0009H47.6829V28.7879ZM54.6739 19.8659C54.4519 18.2229 53.0469 16.9999 51.4109 16.9999C51.3919 16.9999 51.3719 16.9999 51.3529 17.0009H37.4139C35.9269 17.0109 34.6369 18.0809 34.4149 19.5489L33.0339 28.5509C32.7869 30.1859 33.9149 31.7179 35.5469 31.9659C35.7069 31.9909 35.8699 32.0029 36.0229 32.0009H40.6829V35.0009C40.6829 37.2069 42.4769 39.0009 44.6829 39.0009C45.0789 39.0009 45.4359 38.7679 45.5969 38.4069L49.3319 30.0009H51.3349C53.0049 30.0059 54.4489 28.7979 54.6739 27.1349C54.6799 27.0909 54.6829 27.0459 54.6829 27.0009V20.0009C54.6829 19.9559 54.6799 19.9109 54.6739 19.8659Z" fill="#313037"/>
</svg>
