<svg width="237" height="56" viewBox="0 0 237 56" fill="none" xmlns="http://www.w3.org/2000/svg">
<rect width="237" height="56" rx="2" fill="#E8E8E8"/>
<path fill-rule="evenodd" clip-rule="evenodd" d="M44 31C44.204 31 44.407 31.062 44.581 31.187L50 35.057V21C50 20.449 49.552 20 49 20H39C38.449 20 38 20.449 38 21V35.057L43.419 31.187C43.593 31.062 43.796 31 44 31ZM51 38C50.795 38 50.592 37.937 50.419 37.813L44 33.229L37.581 37.813C37.277 38.032 36.875 38.062 36.542 37.89C36.209 37.718 36 37.375 36 37V21C36 19.346 37.346 18 39 18H49C50.654 18 52 19.346 52 21V37C52 37.375 51.791 37.718 51.458 37.89C51.313 37.963 51.156 38 51 38Z" fill="#313037"/>
<path d="M68.9723 35H66.4411L71.0497 21.9091H73.9773L78.5923 35H76.0611L72.5646 24.5938H72.4624L68.9723 35ZM69.0554 29.8672H75.9588V31.772H69.0554V29.8672ZM83.5589 35.1726C82.7876 35.1726 82.0973 34.9744 81.4879 34.5781C80.8786 34.1818 80.397 33.6065 80.0433 32.8523C79.6896 32.098 79.5128 31.1818 79.5128 30.1037C79.5128 29.0128 79.6918 28.0923 80.0497 27.3423C80.4119 26.5881 80.8999 26.0192 81.5135 25.6357C82.1271 25.2479 82.8111 25.054 83.5653 25.054C84.1406 25.054 84.6136 25.152 84.9844 25.348C85.3551 25.5398 85.6491 25.772 85.8665 26.0447C86.0838 26.3132 86.2521 26.5668 86.3714 26.8054H86.4673V21.9091H88.7876V35H86.5121V33.4531H86.3714C86.2521 33.6918 86.0795 33.9453 85.8537 34.2138C85.6278 34.478 85.3295 34.7038 84.9588 34.8913C84.5881 35.0788 84.1214 35.1726 83.5589 35.1726ZM84.2045 33.2741C84.6946 33.2741 85.1122 33.142 85.4574 32.8778C85.8026 32.6094 86.0646 32.2365 86.2436 31.7592C86.4226 31.282 86.5121 30.7259 86.5121 30.0909C86.5121 29.456 86.4226 28.9041 86.2436 28.4354C86.0689 27.9666 85.8089 27.6023 85.4638 27.3423C85.1229 27.0824 84.7031 26.9524 84.2045 26.9524C83.6889 26.9524 83.2585 27.0866 82.9134 27.3551C82.5682 27.6236 82.3082 27.9943 82.1335 28.4673C81.9588 28.9403 81.8714 29.4815 81.8714 30.0909C81.8714 30.7045 81.9588 31.2521 82.1335 31.7337C82.3125 32.2109 82.5746 32.5881 82.9197 32.8651C83.2692 33.1378 83.6974 33.2741 84.2045 33.2741ZM94.8968 35.1726C94.1255 35.1726 93.4352 34.9744 92.8258 34.5781C92.2164 34.1818 91.7349 33.6065 91.3812 32.8523C91.0275 32.098 90.8507 31.1818 90.8507 30.1037C90.8507 29.0128 91.0297 28.0923 91.3876 27.3423C91.7498 26.5881 92.2377 26.0192 92.8514 25.6357C93.465 25.2479 94.149 25.054 94.9032 25.054C95.4785 25.054 95.9515 25.152 96.3223 25.348C96.693 25.5398 96.987 25.772 97.2044 26.0447C97.4217 26.3132 97.59 26.5668 97.7093 26.8054H97.8052V21.9091H100.126V35H97.85V33.4531H97.7093C97.59 33.6918 97.4174 33.9453 97.1916 34.2138C96.9657 34.478 96.6674 34.7038 96.2967 34.8913C95.926 35.0788 95.4593 35.1726 94.8968 35.1726ZM95.5424 33.2741C96.0325 33.2741 96.4501 33.142 96.7953 32.8778C97.1404 32.6094 97.4025 32.2365 97.5815 31.7592C97.7605 31.282 97.85 30.7259 97.85 30.0909C97.85 29.456 97.7605 28.9041 97.5815 28.4354C97.4068 27.9666 97.1468 27.6023 96.8017 27.3423C96.4608 27.0824 96.041 26.9524 95.5424 26.9524C95.0268 26.9524 94.5964 27.0866 94.2512 27.3551C93.9061 27.6236 93.6461 27.9943 93.4714 28.4673C93.2967 28.9403 93.2093 29.4815 93.2093 30.0909C93.2093 30.7045 93.2967 31.2521 93.4714 31.7337C93.6504 32.2109 93.9125 32.5881 94.2576 32.8651C94.6071 33.1378 95.0353 33.2741 95.5424 33.2741ZM111.959 25.1818V26.9716H106.315V25.1818H111.959ZM107.708 22.8295H110.022V32.0469C110.022 32.358 110.069 32.5966 110.163 32.7628C110.261 32.9247 110.388 33.0355 110.546 33.0952C110.704 33.1548 110.879 33.1847 111.07 33.1847C111.215 33.1847 111.347 33.174 111.467 33.1527C111.59 33.1314 111.684 33.1122 111.748 33.0952L112.138 34.9041C112.014 34.9467 111.837 34.9936 111.607 35.0447C111.381 35.0959 111.104 35.1257 110.776 35.1342C110.197 35.1513 109.675 35.0639 109.21 34.8722C108.746 34.6761 108.377 34.3736 108.104 33.9645C107.836 33.5554 107.704 33.044 107.708 32.4304V22.8295ZM118.071 35.1918C117.112 35.1918 116.281 34.9808 115.578 34.5589C114.875 34.1371 114.33 33.5469 113.942 32.7884C113.558 32.0298 113.367 31.1435 113.367 30.1293C113.367 29.1151 113.558 28.2266 113.942 27.4638C114.33 26.701 114.875 26.1087 115.578 25.6868C116.281 25.2649 117.112 25.054 118.071 25.054C119.03 25.054 119.861 25.2649 120.564 25.6868C121.267 26.1087 121.811 26.701 122.194 27.4638C122.582 28.2266 122.776 29.1151 122.776 30.1293C122.776 31.1435 122.582 32.0298 122.194 32.7884C121.811 33.5469 121.267 34.1371 120.564 34.5589C119.861 34.9808 119.03 35.1918 118.071 35.1918ZM118.084 33.3381C118.604 33.3381 119.039 33.1953 119.388 32.9098C119.737 32.62 119.997 32.2322 120.168 31.7464C120.343 31.2607 120.43 30.7195 120.43 30.1229C120.43 29.522 120.343 28.9787 120.168 28.4929C119.997 28.0028 119.737 27.6129 119.388 27.3232C119.039 27.0334 118.604 26.8885 118.084 26.8885C117.551 26.8885 117.108 27.0334 116.754 27.3232C116.405 27.6129 116.143 28.0028 115.968 28.4929C115.798 28.9787 115.713 29.522 115.713 30.1229C115.713 30.7195 115.798 31.2607 115.968 31.7464C116.143 32.2322 116.405 32.62 116.754 32.9098C117.108 33.1953 117.551 33.3381 118.084 33.3381ZM134.178 25.1818V26.9716H128.374V25.1818H134.178ZM129.825 35V24.255C129.825 23.5945 129.961 23.0447 130.234 22.6058C130.511 22.1669 130.881 21.8388 131.346 21.6214C131.81 21.4041 132.326 21.2955 132.893 21.2955C133.293 21.2955 133.649 21.3274 133.96 21.3913C134.271 21.4553 134.501 21.5128 134.651 21.5639L134.19 23.3537C134.092 23.3239 133.969 23.294 133.82 23.2642C133.67 23.2301 133.504 23.2131 133.321 23.2131C132.891 23.2131 132.586 23.3175 132.407 23.5263C132.232 23.7308 132.145 24.0249 132.145 24.4084V35H129.825ZM138.481 35.1982C137.859 35.1982 137.298 35.0874 136.8 34.8658C136.306 34.6399 135.914 34.3075 135.624 33.8686C135.338 33.4297 135.195 32.8885 135.195 32.245C135.195 31.6911 135.298 31.233 135.502 30.8707C135.707 30.5085 135.986 30.2188 136.34 30.0014C136.693 29.7841 137.092 29.62 137.535 29.5092C137.982 29.3942 138.445 29.3111 138.922 29.2599C139.497 29.2003 139.964 29.147 140.322 29.1001C140.68 29.049 140.94 28.9723 141.102 28.87C141.268 28.7635 141.351 28.5994 141.351 28.3778V28.3395C141.351 27.858 141.208 27.4851 140.923 27.2209C140.637 26.9567 140.226 26.8246 139.689 26.8246C139.122 26.8246 138.673 26.9482 138.34 27.1953C138.012 27.4425 137.791 27.7344 137.676 28.071L135.515 27.7642C135.686 27.1676 135.967 26.669 136.359 26.2685C136.751 25.8636 137.23 25.5611 137.797 25.3608C138.364 25.1562 138.99 25.054 139.676 25.054C140.149 25.054 140.62 25.1094 141.089 25.2202C141.558 25.331 141.986 25.5142 142.374 25.7699C142.762 26.0213 143.073 26.3643 143.307 26.799C143.546 27.2337 143.665 27.777 143.665 28.429V35H141.441V33.6513H141.364C141.223 33.924 141.025 34.1797 140.769 34.4183C140.518 34.6527 140.2 34.8423 139.817 34.9872C139.438 35.1278 138.992 35.1982 138.481 35.1982ZM139.082 33.4979C139.546 33.4979 139.949 33.4062 140.29 33.223C140.631 33.0355 140.893 32.7884 141.076 32.4815C141.264 32.1747 141.357 31.8402 141.357 31.478V30.321C141.285 30.3807 141.161 30.4361 140.987 30.4872C140.816 30.5384 140.624 30.5831 140.411 30.6214C140.198 30.6598 139.987 30.6939 139.779 30.7237C139.57 30.7536 139.389 30.7791 139.235 30.8004C138.89 30.8473 138.581 30.924 138.308 31.0305C138.036 31.1371 137.82 31.2862 137.663 31.478C137.505 31.6655 137.426 31.9084 137.426 32.2067C137.426 32.6328 137.582 32.9545 137.893 33.1719C138.204 33.3892 138.6 33.4979 139.082 33.4979ZM154.41 25.1818L150.914 35H148.357L144.86 25.1818H147.328L149.584 32.4751H149.686L151.949 25.1818H154.41ZM159.96 35.1918C159.001 35.1918 158.17 34.9808 157.467 34.5589C156.764 34.1371 156.218 33.5469 155.831 32.7884C155.447 32.0298 155.255 31.1435 155.255 30.1293C155.255 29.1151 155.447 28.2266 155.831 27.4638C156.218 26.701 156.764 26.1087 157.467 25.6868C158.17 25.2649 159.001 25.054 159.96 25.054C160.919 25.054 161.75 25.2649 162.453 25.6868C163.156 26.1087 163.699 26.701 164.083 27.4638C164.471 28.2266 164.664 29.1151 164.664 30.1293C164.664 31.1435 164.471 32.0298 164.083 32.7884C163.699 33.5469 163.156 34.1371 162.453 34.5589C161.75 34.9808 160.919 35.1918 159.96 35.1918ZM159.973 33.3381C160.493 33.3381 160.927 33.1953 161.277 32.9098C161.626 32.62 161.886 32.2322 162.056 31.7464C162.231 31.2607 162.319 30.7195 162.319 30.1229C162.319 29.522 162.231 28.9787 162.056 28.4929C161.886 28.0028 161.626 27.6129 161.277 27.3232C160.927 27.0334 160.493 26.8885 159.973 26.8885C159.44 26.8885 158.997 27.0334 158.643 27.3232C158.294 27.6129 158.032 28.0028 157.857 28.4929C157.686 28.9787 157.601 29.522 157.601 30.1229C157.601 30.7195 157.686 31.2607 157.857 31.7464C158.032 32.2322 158.294 32.62 158.643 32.9098C158.997 33.1953 159.44 33.3381 159.973 33.3381ZM166.628 35V25.1818H168.872V26.8182H168.974C169.153 26.2514 169.46 25.8146 169.895 25.5078C170.334 25.1967 170.834 25.0412 171.397 25.0412C171.525 25.0412 171.667 25.0476 171.825 25.0604C171.987 25.0689 172.121 25.0838 172.228 25.1051V27.2337C172.13 27.1996 171.974 27.1697 171.761 27.1442C171.552 27.1143 171.35 27.0994 171.154 27.0994C170.732 27.0994 170.353 27.1911 170.016 27.3743C169.684 27.5533 169.422 27.8026 169.23 28.1222C169.038 28.4418 168.942 28.8104 168.942 29.228V35H166.628ZM173.765 35V25.1818H176.079V35H173.765ZM174.928 23.7884C174.562 23.7884 174.247 23.6669 173.982 23.424C173.718 23.1768 173.586 22.8807 173.586 22.5355C173.586 22.1861 173.718 21.8899 173.982 21.647C174.247 21.3999 174.562 21.2763 174.928 21.2763C175.299 21.2763 175.615 21.3999 175.874 21.647C176.139 21.8899 176.271 22.1861 176.271 22.5355C176.271 22.8807 176.139 23.1768 175.874 23.424C175.615 23.6669 175.299 23.7884 174.928 23.7884ZM183.361 25.1818V26.9716H177.717V25.1818H183.361ZM179.11 22.8295H181.424V32.0469C181.424 32.358 181.471 32.5966 181.565 32.7628C181.663 32.9247 181.791 33.0355 181.949 33.0952C182.106 33.1548 182.281 33.1847 182.473 33.1847C182.618 33.1847 182.75 33.174 182.869 33.1527C182.993 33.1314 183.086 33.1122 183.15 33.0952L183.54 34.9041C183.417 34.9467 183.24 34.9936 183.01 35.0447C182.784 35.0959 182.507 35.1257 182.179 35.1342C181.599 35.1513 181.077 35.0639 180.613 34.8722C180.148 34.6761 179.779 34.3736 179.507 33.9645C179.238 33.5554 179.106 33.044 179.11 32.4304V22.8295ZM189.537 35.1918C188.553 35.1918 187.703 34.9872 186.987 34.5781C186.275 34.1648 185.728 33.581 185.344 32.8267C184.961 32.0682 184.769 31.1754 184.769 30.1484C184.769 29.1385 184.961 28.2521 185.344 27.4893C185.732 26.7223 186.273 26.1257 186.968 25.6996C187.662 25.2692 188.479 25.054 189.416 25.054C190.021 25.054 190.592 25.152 191.129 25.348C191.67 25.5398 192.148 25.8381 192.561 26.2429C192.979 26.6477 193.307 27.1634 193.545 27.7898C193.784 28.4119 193.903 29.1534 193.903 30.0142V30.7237H185.856V29.1641H191.685C191.681 28.7209 191.585 28.3267 191.398 27.9815C191.21 27.6321 190.948 27.3572 190.611 27.157C190.279 26.9567 189.891 26.8565 189.448 26.8565C188.975 26.8565 188.559 26.9716 188.202 27.2017C187.844 27.4276 187.564 27.7259 187.364 28.0966C187.168 28.4631 187.068 28.8658 187.064 29.3047V30.6662C187.064 31.2372 187.168 31.7273 187.377 32.1364C187.586 32.5412 187.878 32.8523 188.253 33.0696C188.628 33.2827 189.067 33.3892 189.569 33.3892C189.906 33.3892 190.211 33.3423 190.483 33.2486C190.756 33.1506 190.993 33.0078 191.193 32.8203C191.393 32.6328 191.545 32.4006 191.647 32.1236L193.807 32.3665C193.671 32.9375 193.411 33.4361 193.028 33.8622C192.648 34.2841 192.162 34.6122 191.57 34.8466C190.978 35.0767 190.3 35.1918 189.537 35.1918ZM203.621 27.777L201.511 28.0071C201.452 27.794 201.347 27.5938 201.198 27.4062C201.053 27.2188 200.857 27.0675 200.61 26.9524C200.363 26.8374 200.06 26.7798 199.702 26.7798C199.221 26.7798 198.816 26.8842 198.488 27.093C198.164 27.3018 198.004 27.5724 198.009 27.9048C198.004 28.1903 198.109 28.4226 198.322 28.6016C198.539 28.7805 198.897 28.9276 199.396 29.0426L201.07 29.4006C201.999 29.6009 202.69 29.9183 203.141 30.353C203.597 30.7876 203.827 31.3565 203.832 32.0597C203.827 32.6776 203.646 33.223 203.288 33.696C202.935 34.1648 202.442 34.5312 201.812 34.7955C201.181 35.0597 200.457 35.1918 199.638 35.1918C198.437 35.1918 197.469 34.9403 196.737 34.4375C196.004 33.9304 195.567 33.2251 195.426 32.3217L197.683 32.1044C197.785 32.5476 198.002 32.8821 198.335 33.108C198.667 33.3338 199.099 33.4467 199.632 33.4467C200.182 33.4467 200.623 33.3338 200.955 33.108C201.292 32.8821 201.46 32.603 201.46 32.2706C201.46 31.9893 201.352 31.7571 201.134 31.5739C200.921 31.3906 200.589 31.25 200.137 31.152L198.462 30.8004C197.521 30.6044 196.824 30.2741 196.372 29.8097C195.92 29.3409 195.697 28.7486 195.701 28.0327C195.697 27.4276 195.861 26.9034 196.193 26.4602C196.53 26.0128 196.996 25.6676 197.593 25.4247C198.194 25.1776 198.886 25.054 199.67 25.054C200.821 25.054 201.727 25.299 202.387 25.7891C203.052 26.2791 203.463 26.9418 203.621 27.777Z" fill="#313037"/>
</svg>
