<svg width="88" height="56" viewBox="0 0 88 56" fill="none" xmlns="http://www.w3.org/2000/svg">
<rect width="88" height="56" rx="2" fill="#E8E8E8"/>
<path fill-rule="evenodd" clip-rule="evenodd" d="M51.292 36.15C51.218 36.636 50.794 37 50.292 37H50.28H40V27.212L43.608 19.094C44.415 19.352 45 20.108 45 21V25C45 25.552 45.447 26 46 26H51.674C51.728 26.002 51.78 26.003 51.832 26.011C52.097 26.051 52.33 26.192 52.488 26.407C52.646 26.622 52.712 26.885 52.672 27.148L51.292 36.15ZM38 37H36C35.449 37 35 36.551 35 36V29C35 28.448 35.449 28 36 28H38V37ZM54.099 25.22C53.623 24.575 52.925 24.154 52.132 24.033C51.972 24.009 51.814 24.004 51.66 24H47V21C47 18.794 45.206 17 43 17C42.605 17 42.247 17.233 42.086 17.593L38.35 26H36C34.346 26 33 27.345 33 29V36C33 37.654 34.346 39 36 39H50.269H50.304C51.776 39 53.048 37.909 53.269 36.451L54.648 27.45C54.77 26.657 54.574 25.866 54.099 25.22Z" fill="#313037"/>
</svg>
