<svg version="1.0" xmlns="http://www.w3.org/2000/svg"
 width="512.000000pt" height="512.000000pt" viewBox="0 0 512.000000 512.000000"
 preserveAspectRatio="xMidYMid meet">

<g transform="translate(0.000000,512.000000) scale(0.100000,-0.100000)"
fill="#FFFFFF" stroke="none">
<path d="M345 5106 c-84 -21 -147 -57 -211 -121 -65 -65 -105 -136 -123 -223
-16 -76 -16 -4329 0 -4404 37 -172 175 -310 347 -347 75 -16 4328 -16 4404 0
170 36 311 178 347 347 16 76 16 4329 0 4404 -37 172 -176 311 -347 347 -81
17 -4349 14 -4417 -3z m4395 -306 c26 -13 47 -34 60 -60 19 -37 20 -58 20
-430 l0 -390 -2260 0 -2260 0 0 393 c1 442 0 437 76 483 l39 24 2143 0 c2128
0 2143 0 2182 -20z m80 -2780 c0 -1585 0 -1601 -20 -1640 -13 -26 -34 -47 -60
-60 -39 -20 -54 -20 -2181 -20 l-2141 0 -40 22 c-24 14 -48 38 -59 60 -18 36
-19 86 -19 1638 l0 1600 2260 0 2260 0 0 -1600z"/>
<path d="M688 4499 c-43 -22 -78 -81 -78 -129 0 -50 35 -107 80 -130 33 -17
59 -20 170 -20 111 0 137 3 170 20 45 23 80 80 80 130 0 50 -35 107 -80 130
-34 17 -58 20 -172 20 -113 -1 -139 -4 -170 -21z"/>
<path d="M1488 4499 c-43 -22 -78 -81 -78 -129 0 -50 35 -107 80 -130 33 -17
59 -20 170 -20 111 0 137 3 170 20 45 23 80 80 80 130 0 50 -35 107 -80 130
-34 17 -58 20 -172 20 -113 -1 -139 -4 -170 -21z"/>
<path d="M2288 4499 c-43 -22 -78 -81 -78 -129 0 -50 35 -107 80 -130 33 -17
59 -20 170 -20 111 0 137 3 170 20 45 23 80 80 80 130 0 50 -35 107 -80 130
-34 17 -58 20 -172 20 -113 -1 -139 -4 -170 -21z"/>
<path d="M561 2534 c-50 -36 -51 -46 -51 -584 0 -542 1 -550 54 -585 22 -15
54 -16 253 -13 223 3 229 4 285 30 76 35 138 95 179 170 33 60 34 68 34 168 0
100 -2 108 -33 166 -18 34 -51 78 -72 99 l-38 37 27 51 c23 45 26 63 26 147 0
79 -4 103 -23 142 -32 65 -94 125 -160 156 -55 26 -65 27 -257 30 -174 3 -203
1 -224 -14z m399 -199 c96 -49 96 -181 0 -230 -21 -11 -62 -15 -140 -15 l-110
0 0 130 0 130 110 0 c78 0 119 -4 140 -15z m70 -467 c67 -34 93 -79 88 -153
-5 -74 -33 -119 -92 -146 -34 -15 -66 -19 -178 -19 l-138 0 0 170 0 170 138 0
c123 0 143 -2 182 -22z"/>
<path d="M1571 2534 c-50 -36 -51 -46 -51 -584 0 -541 1 -550 53 -585 22 -14
54 -16 237 -13 l212 3 24 28 c33 38 33 96 0 134 l-24 28 -151 3 -151 3 0 469
0 469 -23 26 c-29 34 -92 44 -126 19z"/>
<path d="M2545 2536 c-83 -19 -159 -55 -232 -109 -318 -236 -313 -731 10 -961
348 -247 824 -74 932 339 8 33 15 101 15 152 0 252 -161 476 -403 560 -88 31
-233 39 -322 19z m278 -216 c80 -30 167 -112 209 -198 31 -62 33 -73 33 -172
0 -99 -2 -110 -33 -172 -87 -177 -285 -265 -470 -209 -192 58 -308 240 -280
441 19 144 129 273 271 320 78 26 186 22 270 -10z"/>
<path d="M3945 2535 c-274 -60 -467 -302 -467 -585 0 -246 144 -462 370 -554
304 -123 613 11 717 310 34 97 49 235 31 279 -27 63 -42 67 -251 63 l-187 -3
-24 -28 c-33 -38 -33 -96 0 -134 24 -27 27 -28 144 -31 l120 -4 -15 -51 c-20
-71 -54 -127 -104 -171 -53 -49 -96 -66 -179 -73 -200 -17 -391 137 -418 337
-28 198 87 382 275 440 109 33 221 21 318 -35 64 -37 111 -37 149 1 20 21 26
37 26 69 0 36 -5 48 -34 73 -104 91 -307 133 -471 97z"/>
</g>
</svg>
